<svg height="39" viewBox="0 0 39 39" width="39" xmlns="http://www.w3.org/2000/svg"><g fill="#fff" fill-rule="evenodd"><path d="m33.2885822 5.71141777c3.6569594 3.65695938 5.7114178 8.61686063 5.7114178 13.78858223 0 10.7695526-8.7304474 19.5-19.5 19.5-5.1717216 0-10.13162285-2.0544584-13.78858223-5.7114178-3.65695938-3.6569593-5.71141777-8.6168606-5.71141777-13.7885822s2.05445839-10.13162285 5.71141777-13.78858223 8.61686063-5.71141777 13.78858223-5.71141777 10.1316229 2.05445839 13.7885822 5.71141777zm-29.3885822 13.78858223c0 8.6156421 6.9843579 15.6 15.6 15.6s15.6-6.9843579 15.6-15.6-6.9843579-15.6-15.6-15.6-15.6 6.9843579-15.6 15.6zm18.525 0c0 1.6154329-1.3095671 2.925-2.925 2.925s-2.925-1.3095671-2.925-2.925 1.3095671-2.925 2.925-2.925 2.925 1.3095671 2.925 2.925zm-11.7-2.925c.7757582 0 1.5197434.3081688 2.0682873.8567127s.8567127 1.2925291.8567127 2.0682873c0 1.6154329-1.3095671 2.925-2.925 2.925-1.61543289 0-2.925-1.3095671-2.925-2.925s1.30956711-2.925 2.925-2.925zm17.55 0c1.6154329 0 2.925 1.3095671 2.925 2.925s-1.3095671 2.925-2.925 2.925-2.925-1.3095671-2.925-2.925 1.3095671-2.925 2.925-2.925z" fill="currentColor" fill-rule="nonzero"/><circle cx="10.7" cy="19.5" fill="#ff0909" r="3"/><circle cx="19.5" cy="19.5" fill="#ffb609" r="3"/><circle cx="28.3" cy="19.5" fill="#1ba055" r="3"/></g></svg>
