<svg height="40" viewBox="0 0 146 40" width="146" xmlns="http://www.w3.org/2000/svg"><g fill="currentColor" fill-rule="evenodd" transform="translate(0 -2)"><path d="m56 35.4648422c7.3813243.0046221 14.5053727-1.2295631 20-3.4648422 5.4946273 2.2352791 12.6186757 3.4694643 20 3.4648422 7.381324.0046221 14.505373-1.2295631 20-3.4648422 5.494627 2.2352791 12.618676 3.4694643 20 3.4648422h10v4.5351578h-10c-7.021795.0051798-13.921735-.8318852-20-2.4263207-6.078265 1.5944355-12.978205 2.4315005-20 2.4263207-7.021795.0051798-13.9217351-.8318852-20-2.4263207-6.0782649 1.5944355-12.978205 2.4315005-20 2.4263207h-10v-4.5351578z" fill-rule="nonzero"/><text font-family="FredokaOne-Regular, Fredoka One" font-size="30" letter-spacing=".01875"><tspan x="44" y="29">featica</tspan></text><path d="m19.5.5c5.1717216 0 10.1316229 2.05445839 13.7885822 5.71141777 3.6569594 3.65695938 5.7114178 8.61686063 5.7114178 13.78858223 0 10.7695526-8.7304474 19.5-19.5 19.5-5.1717216 0-10.13162285-2.0544584-13.78858223-5.7114178-3.65695938-3.6569593-5.71141777-8.6168606-5.71141777-13.7885822s2.05445839-10.13162285 5.71141777-13.78858223 8.61686063-5.71141777 13.78858223-5.71141777zm0 3.9c-8.6156421 0-15.6 6.9843579-15.6 15.6s6.9843579 15.6 15.6 15.6 15.6-6.9843579 15.6-15.6-6.9843579-15.6-15.6-15.6zm0 12.675c1.6154329 0 2.925 1.3095671 2.925 2.925s-1.3095671 2.925-2.925 2.925-2.925-1.3095671-2.925-2.925 1.3095671-2.925 2.925-2.925zm-8.775 0c.7757582 0 1.5197434.3081688 2.0682873.8567127s.8567127 1.2925291.8567127 2.0682873c0 1.6154329-1.3095671 2.925-2.925 2.925-1.61543289 0-2.925-1.3095671-2.925-2.925s1.30956711-2.925 2.925-2.925zm17.55 0c1.6154329 0 2.925 1.3095671 2.925 2.925s-1.3095671 2.925-2.925 2.925-2.925-1.3095671-2.925-2.925 1.3095671-2.925 2.925-2.925z" fill-rule="nonzero" transform="translate(0 2)"/></g></svg>
