<svg height="40" viewBox="0 0 147 40" width="147" xmlns="http://www.w3.org/2000/svg"><g fill="currentColor"><path d="m19.5.5c5.1717216 0 10.1316229 2.05445839 13.7885822 5.71141777 3.6569594 3.65695938 5.7114178 8.61686063 5.7114178 13.78858223 0 10.7695526-8.7304474 19.5-19.5 19.5-5.1717216 0-10.13162285-2.0544584-13.78858223-5.7114178-3.65695938-3.6569593-5.71141777-8.6168606-5.71141777-13.7885822s2.05445839-10.13162285 5.71141777-13.78858223 8.61686063-5.71141777 13.78858223-5.71141777zm0 3.9c-8.6156421 0-15.6 6.9843579-15.6 15.6s6.9843579 15.6 15.6 15.6 15.6-6.9843579 15.6-15.6-6.9843579-15.6-15.6-15.6zm0 12.675c1.6154329 0 2.925 1.3095671 2.925 2.925s-1.3095671 2.925-2.925 2.925-2.925-1.3095671-2.925-2.925 1.3095671-2.925 2.925-2.925zm-8.775 0c.7757582 0 1.5197434.3081688 2.0682873.8567127s.8567127 1.2925291.8567127 2.0682873c0 1.6154329-1.3095671 2.925-2.925 2.925-1.61543289 0-2.925-1.3095671-2.925-2.925s1.30956711-2.925 2.925-2.925zm17.55 0c1.6154329 0 2.925 1.3095671 2.925 2.925s-1.3095671 2.925-2.925 2.925-2.925-1.3095671-2.925-2.925 1.3095671-2.925 2.925-2.925z"/><g transform="translate(45 3)" fill="currentColor"><path d="m12 30.4648422c7.3813243.0046221 14.5053727-1.2295631 20-3.4648422 5.4946273 2.2352791 12.6186757 3.4694643 20 3.4648422 7.3813243.0046221 14.5053727-1.2295631 20-3.4648422 5.4946273 2.2352791 12.6186757 3.4694643 20 3.4648422h10v4.5351817h-10c-7.021795.0051559-13.9217351-.8319091-20-2.4263446-6.0782649 1.5944355-12.978205 2.4315005-20 2.4263446-7.021795.0051559-13.9217351-.8319091-20-2.4263446-6.0782649 1.5944355-12.978205 2.4315005-20 2.4263446h-10v-4.5351817z"/><path d="m10.44 8.22c1.3800069 0 2.1899988.3799962 2.43 1.14.1200006.3800019.18.8799969.18 1.5s-.0649993 1.1149981-.195 1.485c-.1300006.3700018-.3349986.6349992-.615.795-.4200021.2400012-1.029996.36-1.83.36l-1.92-.12v8.04c0 .7600038-.09499905 1.3249981-.285 1.695-.19000095.3700018-.47999805.6149994-.87.735s-.8949969.18-1.515.18-1.11499815-.0649994-1.485-.195c-.37000185-.1300007-.6349992-.3399986-.795-.63-.1600008-.2900015-.25499985-.5549988-.285-.795s-.045-.5899977-.045-1.05v-7.95h-1.08c-.5200026-.0400002-.8899989-.16-1.11-.36-.3800019-.3800019-.57-1.1099946-.57-2.19 0-1.6400082.5899941-2.46 1.77-2.46h.99v-1.59c0-1.5400077.5499945-2.93499375 1.65-4.185s2.6899896-1.875 4.77-1.875c.4600023 0 .8049988.01499985 1.035.045.2300011.03000015.4949985.1249992.795.285.5400027.2600013.81 1.0299936.81 2.31 0 .9600048-.1699983 1.6499979-.51 2.07-.2800014.3200016-.719997.4999998-1.32.54h-.84c-.7400037 0-1.11.25-1.11.75v1.65zm19.21875 6c0 1.2200061-.304997 2.124997-.915 2.715-.6100031.5900029-1.2849963.885-2.025.885h-7.11c0 .5600028.3299967 1.0299981.99 1.41s1.3199967.57 1.98.57c1.1600058 0 2.0699967-.1199988 2.73-.36l.33-.12c.4800024-.2200011.8799984-.33 1.2-.33.6400032 0 1.1899977.4499955 1.65 1.35.2600013.5400027.39.9999981.39 1.38 0 1.7800089-2.1299787 2.67-6.39 2.67-1.4800074 0-2.7949943-.2549975-3.945-.765-1.1500058-.5100026-2.0449968-1.1849958-2.685-2.025-1.2600063-1.6200081-1.89-3.42999-1.89-5.43 0-2.5200126.8149918-4.5349925 2.445-6.045 1.6300081-1.51000755 3.6649878-2.265 6.105-2.265 2.7800139 0 4.8199935.9799902 6.12 2.94.6800034 1.0400052 1.02 2.1799938 1.02 3.42zm-6.33.87c.7600038 0 1.14-.3199968 1.14-.96 0-.4600023-.1749983-.8299986-.525-1.11s-.8499968-.42-1.5-.42c-.6500033 0-1.2949968.2649973-1.935.795-.6400032.5300026-.96 1.094997-.96 1.695zm18.55875-5.22c.1200006-1.1200056.9099927-1.68 2.37-1.68.7800039 0 1.3599981.0599994 1.74.18s.6449992.3299985.795.63c.1500007.3000015.2399998.56499885.27.795.0300001.2300011.045.5749977.045 1.035v10.5c0 .4600023-.0149999.8049988-.045 1.035-.0300002.2300011-.1149993.4949985-.255.795-.2800014.5200026-.9649946.78-2.055.78-1.0900055 0-1.8199982-.1349987-2.19-.405-.3700019-.2700014-.5849997-.6649974-.645-1.185-.74 1.0600053-1.9749914 1.59-3.705 1.59-1.7300087 0-3.3349926-.7899921-4.815-2.37s-2.22-3.4149896-2.22-5.505c0-2.0900105.7449925-3.9199922 2.235-5.49 1.4900074-1.57000785 3.1249911-2.355 4.905-2.355.6800034 0 1.2999972.1199988 1.86.36s.9499989.46499895 1.17.675.3999993.414999.54.615zm-5.46 6.24c0 .6600033.2599974 1.2549973.78 1.785.5200026.5300026 1.1499963.795 1.89.795s1.3549975-.2699973 1.845-.81c.4900024-.5400027.735-1.1349968.735-1.785 0-.6500033-.2349977-1.2549972-.705-1.815-.4700024-.5600028-1.0999961-.84-1.89-.84-.790004 0-1.4299976.2799972-1.92.84-.4900025.5600028-.735 1.1699967-.735 1.83zm22.27875-2.61-1.95-.12v4.14c0 .5400027.0849991.9299988.255 1.17.1700008.2400012.4899976.36.96.36.4700023 0 .8299987.0149998 1.08.045.2500013.0300001.5149986.1249992.795.285.4600023.2600013.69.9299946.69 2.01 0 1.2600063-.2799972 2.0299986-.84 2.31-.3000015.1400007-.5649989.2249998-.795.255-.2300011.0300001-.5649978.045-1.005.045-2.0800104 0-3.6599946-.4699953-4.74-1.41s-1.62-2.5299888-1.62-4.77v-4.44c-.3800019.0600003-.7899978.09-1.23.09s-.8049986-.1699983-1.095-.51c-.2900015-.3400017-.435-.9199959-.435-1.74s.0499995-1.41499815.15-1.785.2399991-.6349992.42-.795c.3200016-.2600013.7199976-.39 1.2-.39l.99.12v-3.09c0-.4600023.0149999-.7999989.045-1.02.0300002-.2200011.1249992-.4599987.285-.72.2600013-.5000025 1.0299936-.75 2.31-.75 1.3600068 0 2.1699987.3699963 2.43 1.11.1000005.3200016.15.8299965.15 1.53v2.94c.8800044-.08 1.5449977-.12 1.995-.12s.7899988.01499985 1.02.045c.2300011.03000015.4949985.1249992.795.285.5200026.2600013.78 1.0299936.78 2.31 0 1.2600063-.2699973 2.0299986-.81 2.31-.3000015.1400007-.5649989.2249998-.795.255-.2300012.0300001-.5749977.045-1.035.045zm4.30875-2.67c0-.4600023.0149998-.8049989.045-1.035.0300001-.23000115.1149993-.4949985.255-.795.2800014-.5200026 1.0599936-.78 2.34-.78.9600048 0 1.639998.1699983 2.04.51.3400017.2800014.5199999.7099971.54 1.29.0200001.2.03.4899981.03.87v10.5c0 .4600023-.0149998.8049988-.045 1.035-.0300002.2300011-.1249992.4949985-.285.795-.2600013.5200026-1.0299936.78-2.31.78-1.2600063 0-2.0299986-.2699973-2.31-.81-.1400007-.3000015-.2249999-.5599989-.255-.78-.0300002-.2200011-.045-.5699976-.045-1.05zm4.92-5.55c-.1400007.2800014-.3999981.4799994-.78.6s-.8849969.18-1.515.18c-.6300032 0-1.1349981-.0599994-1.515-.18s-.6449993-.3299985-.795-.63c-.1500008-.3000015-.2399999-.56499885-.27-.795-.0300002-.23000115-.045-.5749977-.045-1.035s.0149998-.80499885.045-1.035c.0300001-.23000115.1149993-.4849986.255-.765.2800014-.5400027 1.0599936-.81 2.34-.81 1.2600063 0 2.0199987.2699973 2.28.81.1600008.3000015.2549998.56499885.285.795s.045.5749977.045 1.035-.0149998.80499885-.045 1.035-.1249992.4949985-.285.795zm7.69875 10.83c0 .8400042.2799972 1.4949976.84 1.965.5600028.4700023 1.1549968.705 1.785.705.6300031 0 1.2199972-.1849982 1.77-.555.5500028-.3700019.9949983-.555 1.335-.555.600003 0 1.3299957.5299947 2.19 1.59.4600023.5800029.69 1.0999977.69 1.56 0 .7600038-.5499945 1.4699967-1.65 2.13-1.1400057.800004-2.5399917 1.2-4.2 1.2-1.8600093 0-3.6499914-.6699933-5.37-2.01-.8200041-.6400032-1.4899974-1.4949947-2.01-2.565-.5200026-1.0700054-.78-2.2499936-.78-3.54 0-1.2900065.2599974-2.4599948.78-3.51.5200026-1.0500053 1.1899959-1.8949968 2.01-2.535 1.6600083-1.3200066 3.4299906-1.98 5.31-1.98.7600038 0 1.4999964.10499895 2.22.315s1.2499983.414999 1.59.615l.48.3c.3600018.2400012.639999.4299993.84.57.5200026.400002.78.8549974.78 1.365 0 .5100025-.2099979 1.0849968-.63 1.725-.7200036 1.1000055-1.4099967 1.65-2.07 1.65-.3800019 0-.9199965-.2199978-1.62-.66-.3600018-.3400017-.8749967-.51-1.545-.51-.6700034 0-1.2949971.2399976-1.875.72s-.87 1.1499957-.87 2.01zm20.83875-6.24c.1200006-1.1200056.9099927-1.68 2.37-1.68.7800039 0 1.359998.0599994 1.74.18s.644999.3299985.795.63.24.56499885.27.795c.03.2300011.045.5749977.045 1.035v10.5c0 .4600023-.015.8049988-.045 1.035-.03.2300011-.114999.4949985-.255.795-.280001.5200026-.964995.78-2.055.78-1.0900055 0-1.8199982-.1349987-2.19-.405-.3700018-.2700014-.5849997-.6649974-.645-1.185-.74 1.0600053-1.9749914 1.59-3.705 1.59-1.7300087 0-3.3349926-.7899921-4.815-2.37s-2.22-3.4149896-2.22-5.505c0-2.0900105.7449925-3.9199922 2.235-5.49 1.4900075-1.57000785 3.1249911-2.355 4.905-2.355.6800034 0 1.2999972.1199988 1.86.36s.9499989.46499895 1.17.675.3999993.414999.54.615zm-5.46 6.24c0 .6600033.2599974 1.2549973.78 1.785.5200026.5300026 1.1499963.795 1.89.795s1.3549975-.2699973 1.845-.81c.4900024-.5400027.735-1.1349968.735-1.785 0-.6500033-.2349977-1.2549972-.705-1.815s-1.099996-.84-1.89-.84c-.7900039 0-1.4299975.2799972-1.92.84s-.735 1.1699967-.735 1.83z"/></g></g></svg>
